<svg width="89" height="40" viewBox="0 0 89 40" fill="none" xmlns="http://www.w3.org/2000/svg">
<path d="M86.0019 32.8988C82.0044 36.8039 75.5232 36.804 71.5257 32.8989L57.0486 18.7568C53.051 14.8516 53.0509 8.51995 57.0485 4.61473C61.046 0.709591 67.5271 0.70954 71.5247 4.61461L86.0017 18.7567C89.9994 22.6619 89.9994 28.9935 86.0019 32.8988Z" fill="#F7F8FF"/>
<path d="M68.4036 10.0002C68.4036 4.47707 72.9865 0 78.6403 0C84.2931 0 88.877 4.47707 88.877 10.0002V30.0007C88.877 35.5229 84.2931 40 78.6403 40C72.9865 40 68.4036 35.5229 68.4036 30.0007V10.0002Z" fill="#5E17EB"/>
<path d="M76.4467 11.6529C76.4467 12.9556 76.7433 13.9855 77.3376 14.7428C77.9338 15.4982 78.7352 15.8754 79.7419 15.8754C80.2214 15.8754 80.7271 15.7908 81.2592 15.6207C81.7931 15.4516 82.2639 15.2217 82.6714 14.9328V16.6773C82.2746 16.9281 81.7902 17.1315 81.2203 17.2854C80.6523 17.4374 80.0881 17.5134 79.5279 17.5134C78.0515 17.5134 76.861 16.968 75.9565 15.8754C75.051 14.7808 74.5987 13.3784 74.5987 11.6682C74.5987 9.9503 75.0636 8.54599 75.9954 7.45332C76.9262 6.35876 78.1507 5.81148 79.668 5.81148C80.2146 5.81148 80.7583 5.88179 81.2981 6.02051C81.8369 6.15733 82.2707 6.34641 82.5975 6.5868V8.33125C82.1695 8.04241 81.7153 7.82103 81.2358 7.66616C80.7583 7.51223 80.2914 7.43432 79.8353 7.43432C78.7975 7.43432 77.9727 7.81058 77.3609 8.56309C76.7511 9.3137 76.4467 10.3437 76.4467 11.6529Z" fill="#F7F8FF"/>
<path d="M82.0728 28.9627C82.0728 29.9765 81.713 30.7746 80.9952 31.357C80.2793 31.9376 79.2844 32.2274 78.0112 32.2274C77.5132 32.2274 77.0318 32.178 76.5679 32.0792C76.1059 31.9803 75.6507 31.8312 75.2023 31.6307V29.8406C75.6196 30.1095 76.0718 30.3157 76.5601 30.4601C77.0503 30.6045 77.5444 30.6767 78.0423 30.6767C78.7241 30.6767 79.2561 30.5428 79.6374 30.2739C80.0187 30.0059 80.2093 29.6335 80.2093 29.1565C80.2093 28.7898 80.079 28.4553 79.8203 28.1532C79.5606 27.8491 78.9887 27.4634 78.1046 26.994C77.523 26.6881 77.0979 26.442 76.8285 26.2567C76.5581 26.0724 76.3276 25.8804 76.136 25.6828C75.8403 25.394 75.6205 25.0738 75.4785 24.7213C75.3356 24.3697 75.2646 23.9839 75.2646 23.5659C75.2646 22.6309 75.6001 21.8917 76.2722 21.3464C76.9433 20.7991 77.8488 20.5254 78.9877 20.5254C79.4565 20.5254 79.9039 20.5729 80.3299 20.6661C80.7579 20.7601 81.1508 20.8969 81.5087 21.0765V22.954C81.213 22.6956 80.8279 22.4922 80.3532 22.3421C79.8806 22.1929 79.3962 22.1179 78.8982 22.1179C78.3273 22.1179 77.8887 22.2309 77.5833 22.4561C77.2798 22.6794 77.1281 22.9949 77.1281 23.4025C77.1281 23.7502 77.2526 24.0657 77.5016 24.3488C77.7505 24.6329 78.301 24.993 79.155 25.4282C79.7561 25.7379 80.1976 25.9869 80.4778 26.1769C80.7579 26.365 80.9932 26.5569 81.1858 26.7546C81.4912 27.0643 81.7159 27.3997 81.8588 27.7617C82.0009 28.1247 82.0728 28.5247 82.0728 28.9627Z" fill="#F7F8FF"/>
<path d="M6.56855 32.2599C4.11793 32.2599 1.92874 31.7551 0 30.7434L0.429899 27.106C1.1861 27.6372 2.07204 28.0858 3.08675 28.4536C4.10341 28.8196 5.21301 29.0017 6.41363 29.0017C7.53389 29.0017 8.39369 28.8253 8.99303 28.4724C9.5914 28.1177 9.89156 27.5856 9.89156 26.8771C9.89156 26.0944 9.57204 25.4947 8.93493 25.079C8.29686 24.6614 7.36445 24.2635 6.13865 23.8853C4.88865 23.4799 3.85941 23.082 3.0519 22.6916C2.24342 22.2994 1.57823 21.7494 1.05732 21.0437C0.535438 20.3361 0.274981 19.4259 0.274981 18.3147C0.274981 16.7231 0.892719 15.4037 2.13013 14.3545C3.36948 13.3063 5.16266 12.7817 7.50968 12.7817C9.54105 12.7817 11.3914 13.2237 13.0596 14.1068L12.6297 17.594C11.8213 17.0141 11.0196 16.5655 10.2246 16.2502C9.42874 15.933 8.54957 15.7734 7.58714 15.7734C6.56952 15.7734 5.77459 15.964 5.20139 16.344C4.6282 16.7222 4.3416 17.2778 4.3416 18.0107C4.3416 18.5418 4.4849 18.9707 4.7715 19.2982C5.05809 19.6267 5.47444 19.9045 6.02246 20.1316C6.56952 20.3596 7.42932 20.6759 8.60186 21.0813C10.2692 21.6368 11.5928 22.3191 12.5716 23.1271C13.5496 23.936 14.0395 25.1231 14.0395 26.6894C14.0395 28.3063 13.4324 29.6389 12.2192 30.6871C11.0079 31.7363 9.12471 32.2599 6.56855 32.2599Z" fill="#5E17EB"/>
<path d="M26.0024 32.2599C23.9933 32.2599 22.2534 31.8245 20.7817 30.9536C19.3099 30.0809 18.1887 28.906 17.4199 27.4289C16.6502 25.9499 16.2658 24.3132 16.2658 22.5189C16.2658 20.7247 16.6502 19.0899 17.4199 17.6128C18.1887 16.1338 19.3099 14.9589 20.7817 14.088C22.2534 13.2171 23.9933 12.7817 26.0024 12.7817C27.9825 12.7817 29.7088 13.2171 31.1806 14.088C32.6542 14.9589 33.7832 16.1338 34.5655 17.6128C35.3479 19.0899 35.7391 20.7247 35.7391 22.5189C35.7391 24.3132 35.3479 25.9499 34.5655 27.4289C33.7832 28.906 32.6542 30.0809 31.1806 30.9536C29.7088 31.8245 27.9825 32.2599 26.0024 32.2599ZM26.0024 28.8853C27.7733 28.8853 29.1405 28.3176 30.1039 27.1811C31.0692 26.0456 31.5524 24.4915 31.5524 22.5189C31.5524 20.5501 31.0692 18.997 30.1039 17.8605C29.1405 16.7222 27.7733 16.1526 26.0024 16.1526C24.2286 16.1526 22.8585 16.7222 21.8932 17.8605C20.9298 18.997 20.4486 20.5501 20.4486 22.5189C20.4486 24.4915 20.9298 26.0456 21.8932 27.1811C22.8585 28.3176 24.2286 28.8853 26.0024 28.8853Z" fill="#5E17EB"/>
<path d="M40.5073 16.3065H37.4167L37.8853 13.1608H40.5073V8.91534C40.5073 7.22146 40.9953 5.88888 41.9713 4.91759C42.9492 3.94443 44.3387 3.45738 46.1386 3.45738C47.2076 3.45738 48.2359 3.59627 49.2254 3.87405L48.7568 7.13231C48.1061 6.95776 47.5068 6.86954 46.9597 6.86954C45.3689 6.86954 44.574 7.71602 44.574 9.40708V13.1608H49.3842V16.3065H44.574V31.8808H40.5073V16.3065Z" fill="#5E17EB"/>
<path d="M58.8455 32.2599C57.1492 32.2599 55.8769 31.8123 55.0307 30.9161C54.1834 30.018 53.7603 28.9116 53.7603 27.5978V16.3065H50.6736L51.0221 13.1608H53.7603V8.7239L57.8269 8.34477V13.1608H62.5597V16.3065H57.8269V25.5895C57.8269 26.7513 57.8976 27.5527 58.0399 27.9957C58.1842 28.4386 58.4786 28.7239 58.923 28.8515C59.3664 28.9773 60.2011 29.0392 61.4249 29.0392H62.4822L62.1685 32.2599H58.8455Z" fill="#5E17EB"/>
</svg>
