<svg width="380" height="430" viewBox="0 0 380 430" fill="none" xmlns="http://www.w3.org/2000/svg">
<g style="mix-blend-mode:overlay">
<path d="M377.571 393.14C330.333 439.807 253.745 439.807 206.506 393.142L35.4306 224.143C-11.8096 177.477 -11.8103 101.813 35.429 55.146C82.6672 8.47962 159.255 8.479 206.494 55.1446L377.569 224.143C424.81 270.81 424.81 346.473 377.571 393.14Z" fill="#F7F8FF"/>
<path d="M169.612 119.503C169.612 53.5009 223.769 0 290.579 0C357.379 0 411.547 53.5009 411.547 119.503V358.509C411.547 424.499 357.379 478 290.579 478C223.769 478 169.612 424.499 169.612 358.509V119.503Z" fill="#5E17EB"/>
<path d="M264.658 139.253C264.658 154.819 268.163 167.127 275.185 176.177C282.231 185.203 291.701 189.711 303.597 189.711C309.263 189.711 315.24 188.7 321.526 186.668C327.836 184.647 333.399 181.899 338.215 178.447V199.294C333.526 202.291 327.802 204.721 321.067 206.56C314.355 208.377 307.689 209.285 301.068 209.285C283.621 209.285 269.554 202.768 258.865 189.711C248.165 176.631 242.82 159.872 242.82 139.434C242.82 118.906 248.314 102.125 259.325 89.0672C270.324 75.9872 284.794 69.4472 302.723 69.4472C309.183 69.4472 315.607 70.2874 321.986 71.9451C328.354 73.5801 333.48 75.8396 337.341 78.7122V99.5585C332.284 96.1068 326.917 93.4613 321.251 91.6106C315.607 89.7712 310.091 88.8401 304.7 88.8401C292.437 88.8401 282.691 93.3364 275.461 102.329C268.255 111.299 264.658 123.607 264.658 139.253Z" fill="#F7F8FF"/>
<path d="M331.142 346.104C331.142 358.219 326.889 367.757 318.407 374.717C309.948 381.654 298.19 385.117 283.145 385.117C277.261 385.117 271.572 384.527 266.089 383.346C260.63 382.165 255.251 380.382 249.953 377.987V356.595C254.883 359.809 260.228 362.273 265.997 363.998C271.79 365.724 277.629 366.587 283.513 366.587C291.57 366.587 297.857 364.986 302.362 361.773C306.868 358.571 309.12 354.12 309.12 348.42C309.12 344.038 307.58 340.041 304.523 336.43C301.454 332.797 294.696 328.187 284.249 322.578C277.376 318.922 272.353 315.982 269.17 313.767C265.974 311.565 263.25 309.271 260.986 306.91C257.492 303.458 254.895 299.632 253.217 295.419C251.527 291.218 250.688 286.608 250.688 281.612C250.688 270.44 254.653 261.606 262.595 255.089C270.526 248.549 281.226 245.279 294.685 245.279C300.225 245.279 305.511 245.847 310.546 246.959C315.603 248.083 320.246 249.718 324.475 251.864V274.3C320.981 271.212 316.43 268.782 310.821 266.988C305.236 265.206 299.512 264.309 293.627 264.309C286.881 264.309 281.697 265.66 278.088 268.351C274.502 271.019 272.709 274.789 272.709 279.659C272.709 283.815 274.181 287.585 277.123 290.968C280.065 294.363 286.57 298.666 296.662 303.867C303.764 307.568 308.982 310.543 312.293 312.814C315.603 315.062 318.384 317.355 320.66 319.717C324.269 323.419 326.923 327.427 328.613 331.753C330.291 336.09 331.142 340.87 331.142 346.104Z" fill="#F7F8FF"/>
</g>
</svg>
